<svg width="237" height="207" viewBox="0 0 237 207" fill="none" xmlns="http://www.w3.org/2000/svg">
<mask id="mask0_1_5709" style="mask-type:luminance" maskUnits="userSpaceOnUse" x="0" y="0" width="237" height="207">
<path d="M236.521 0.486328H0.774414V206.597H236.521V0.486328Z" fill="white"/>
</mask>
<g mask="url(#mask0_1_5709)">
<path d="M130.246 195.106L43.7664 202.27C41.2833 202.482 38.8004 200.426 38.2327 197.66L1.48394 16.7284C0.916392 13.9623 -0.218699 8.78475 9.85526 8.28819L97.2579 1.55028C99.741 1.33754 102.224 3.39433 102.792 6.16042L140.108 187.305C140.676 189.787 137.98 194.893 130.246 195.106Z" fill="#2E3038"/>
<path d="M43.4118 202.624C40.8578 202.624 38.4458 200.497 37.8781 197.66L1.12935 16.7993C0.774636 15.1681 0.278026 12.7566 1.76785 10.8416C3.11577 9.13936 5.74066 8.14646 9.78454 8.0046L97.258 1.26668C99.883 1.05384 102.579 3.2526 103.146 6.16054L140.463 187.305C140.747 188.581 140.25 190.213 139.115 191.632C137.98 193.05 135.497 195.319 130.246 195.461L43.8374 202.624C43.6955 202.624 43.5537 202.624 43.4118 202.624ZM97.6127 1.90499H97.329L9.85548 8.64291C6.09537 8.85564 3.54144 9.70679 2.3354 11.2671C1.05841 12.9693 1.48407 15.0971 1.76785 16.5866L38.5877 197.518C39.0843 200.071 41.4254 202.057 43.6955 201.844L130.175 194.681C135.142 194.539 137.554 192.411 138.548 191.135C139.47 190.142 139.895 188.723 139.754 187.376L102.437 6.23141C101.94 3.74905 99.812 1.90499 97.6127 1.90499Z" fill="#2E3038"/>
<path d="M136.845 191.774L50.3639 198.936C47.8808 199.149 45.3978 197.093 44.8303 194.327L8.08138 13.395C7.51385 10.6289 9.07467 8.21744 11.5576 8.00471L98.0381 0.912093C100.521 0.69936 103.004 2.75615 103.572 5.52223L140.321 186.454C140.888 189.149 139.328 191.561 136.845 191.774Z" fill="white"/>
<path d="M50.0807 199.291C47.5267 199.291 45.1147 197.163 44.5472 194.398L7.72736 13.4658C7.37266 12.0473 7.72736 10.4869 8.57866 9.3521C9.28807 8.43007 10.3523 7.79176 11.5583 7.72077L98.0387 0.486407C100.664 0.273562 103.359 2.47232 103.927 5.38027L140.676 186.312C141.031 187.731 140.676 189.29 139.825 190.497C139.115 191.418 138.051 192.056 136.845 192.127L50.4354 199.291H50.0807ZM98.3935 1.19559H98.1097L11.6292 8.35908C10.6361 8.43007 9.71372 8.92652 9.14619 9.70669C8.43678 10.7706 8.15301 12.0473 8.43677 13.2529L45.2566 194.256C45.7532 196.809 48.0944 198.794 50.3645 198.581L136.845 191.418C137.838 191.347 138.76 190.851 139.328 190.071C140.037 189.007 140.321 187.731 140.037 186.454L103.289 5.593C102.721 3.11063 100.593 1.19559 98.3935 1.19559Z" fill="#2E3038"/>
<path d="M63.7014 15.31L51.8538 16.3029C51.1444 16.3029 50.5058 15.8064 50.3639 15.0262C50.222 14.4588 50.5058 13.8205 51.1444 13.6078C51.2153 13.6078 51.2863 13.6078 51.2863 13.6078L63.2047 12.6147C63.9143 12.6147 64.5527 13.1112 64.6946 13.8914C64.9074 14.5298 64.5527 15.0971 63.9143 15.31C63.8433 15.31 63.7724 15.31 63.7014 15.31Z" fill="#2E3038"/>
<path d="M131.879 174.821L48.4487 181.702L15.46 19.4945L35.2532 17.8633L37.8782 19.7074C38.7295 20.3457 39.7937 20.6294 40.8578 20.5584L75.7621 17.7214C76.8263 17.6505 77.7486 17.154 78.387 16.3029L80.0188 14.1751L98.8898 12.6147L131.879 174.821Z" fill="#184AFB"/>
<path d="M48.449 182.127C48.3071 182.127 48.1652 181.985 48.0942 181.843L15.1055 19.5657C15.1055 19.4948 15.1055 19.3529 15.1764 19.282C15.2474 19.2111 15.3183 19.1401 15.3892 19.1401L35.1825 17.5089C35.2534 17.5089 35.3244 17.5089 35.3953 17.5798L38.0203 19.4238C38.8006 19.9913 39.7938 20.275 40.7871 20.204L75.6914 17.296C76.6136 17.2252 77.4649 16.7286 78.0326 16.0194L79.6642 13.8917C79.7351 13.8207 79.8061 13.7498 79.948 13.7498L98.819 12.1895C99.0318 12.1895 99.1737 12.3313 99.1737 12.4732L132.163 174.752C132.163 174.821 132.163 174.963 132.092 175.034C132.021 175.105 131.95 175.176 131.808 175.176L48.449 182.127ZM15.8858 19.7784L48.7327 181.348L131.454 174.468L98.6062 12.9696L80.1608 14.4591L78.671 16.445C77.9616 17.367 76.9683 17.9344 75.7623 18.0053L40.858 20.9133C39.7228 20.9842 38.5878 20.6296 37.5946 19.9913L35.1825 18.2181L15.8858 19.7784Z" fill="#2E3038"/>
<path d="M93.8527 183.049C93.6397 181.914 92.6466 181.135 91.5115 181.135C90.5182 181.276 89.8797 182.127 89.9507 183.12C89.9507 183.191 89.9507 183.333 90.0216 183.404C90.2344 184.539 91.2277 185.318 92.3628 185.318C93.356 185.176 93.9945 184.326 93.9236 183.333C93.9236 183.262 93.9236 183.191 93.8527 183.049Z" fill="#2E3038"/>
<path d="M39.8647 54.2478L30.9259 54.9571C29.436 54.9571 28.1591 53.8932 27.9463 52.4746L25.9598 42.545C25.676 41.0556 26.5273 39.7081 27.8753 39.6371L36.8141 38.8569C38.304 38.8569 39.581 39.9208 39.7938 41.4103L41.7802 51.2689C42.064 52.8293 41.2127 54.1768 39.8647 54.2478Z" fill="white"/>
<path d="M30.7836 55.3831C29.2228 55.3121 27.8749 54.1065 27.5911 52.617L25.6046 42.6874C25.3918 41.8363 25.6046 40.9852 26.1012 40.2759C26.5269 39.7085 27.1655 39.3539 27.8749 39.2829L36.8138 38.5737C38.4454 38.5737 39.8644 39.7085 40.2191 41.3398L42.2054 51.1985C42.4183 52.0496 42.2054 52.9007 41.7089 53.6099C41.2832 54.1773 40.6447 54.5319 40.0063 54.6029L31.0673 55.3121L30.7836 55.3831ZM36.9557 39.2829H36.8138L27.8749 39.9922C27.3783 40.0632 26.9525 40.2759 26.6688 40.7015C26.314 41.2688 26.1722 41.9072 26.3141 42.5456L28.3005 52.4751C28.5133 53.7518 29.6484 54.6738 30.9255 54.6738L39.8644 53.9646C40.361 53.8936 40.7866 53.6809 41.0704 53.2553C41.4251 52.7589 41.567 52.0496 41.4251 51.4113L39.4387 41.5525C39.2258 40.3468 38.2326 39.3539 36.9557 39.2829Z" fill="white"/>
<path d="M59.7994 52.6169L50.8605 53.3261C49.3706 53.3261 48.0937 52.2622 47.8808 50.7728L45.8944 40.9141C45.6106 39.4247 46.4619 38.077 47.8099 38.0062L56.7488 37.2969C58.2386 37.2969 59.5155 38.3608 59.7283 39.8502L61.7148 49.7089C61.9986 51.1983 61.1473 52.5459 59.7994 52.6169Z" fill="white"/>
<path d="M50.7191 53.7517C49.1583 53.6809 47.8104 52.4751 47.5266 50.9148L45.5402 41.0561C45.3274 40.205 45.5402 39.3539 46.0368 38.6446C46.4624 38.0773 47.101 37.7225 47.8104 37.6517L56.7493 36.9424C58.381 36.9424 59.7999 38.1481 60.1546 39.7085L62.141 49.5672C62.3539 50.4183 62.141 51.2694 61.6444 51.9787C61.2187 52.5461 60.5803 52.9007 59.8709 52.9716L50.9319 53.6809L50.7191 53.7517ZM56.8912 37.6517H56.7493L47.8104 38.361C47.3138 38.4318 46.8882 38.6446 46.6044 39.0702C46.2496 39.6376 46.1077 40.2759 46.2496 40.9142L48.2361 50.7729C48.4489 52.0495 49.5839 52.9716 50.861 52.9716L59.7999 52.2624C60.2965 52.1914 60.7222 51.9787 61.0059 51.6241C61.3606 51.0566 61.5025 50.4183 61.3606 49.7799L59.3743 39.9213C59.1615 38.7156 58.0972 37.7225 56.8912 37.6517Z" fill="white"/>
<path d="M79.6636 50.9854L70.7247 51.6947C69.235 51.6947 67.9579 50.6308 67.7451 49.1414L65.7586 39.2827C65.4749 37.7933 66.3263 36.4457 67.6741 36.3747L76.6131 35.6655C78.1028 35.6655 79.3799 36.7294 79.5927 38.1479L81.5791 48.0775C81.9339 49.5669 81.0825 50.8436 79.6636 50.9854Z" fill="white"/>
<path d="M70.5834 52.0491C69.0227 51.9782 67.6747 50.7725 67.3909 49.2121L65.4044 39.3534C65.1916 38.5023 65.4044 37.6512 65.9011 36.9419C66.3268 36.3745 66.9653 36.0199 67.6747 35.949L76.6136 35.2397C78.2452 35.2397 79.7351 36.3745 80.0189 38.0058L82.0054 47.8645C82.2182 48.7156 82.0053 49.5667 81.5086 50.2759C81.083 50.8433 80.4445 51.1981 79.7351 51.2689L70.7962 51.9782L70.5834 52.0491ZM76.7555 36.0199H76.6136L67.6747 36.7292C67.1781 36.7292 66.7524 37.0128 66.4687 37.3675C66.114 37.935 65.9721 38.5733 66.114 39.2116L68.1713 49.0703C68.3841 50.3469 69.5193 51.2689 70.7962 51.2689L79.7351 50.5596C80.2317 50.4888 80.6574 50.2759 80.9411 49.8504C81.2958 49.3539 81.4377 48.6447 81.2958 48.0064L79.3095 38.0767C79.0257 37.0128 78.0324 36.0908 76.7555 36.0199Z" fill="white"/>
<path d="M99.5991 49.3542L90.6602 50.0634C89.1704 50.0634 87.8934 48.9995 87.6806 47.5101L85.6942 37.6514C85.4103 36.162 86.2617 34.8144 87.6096 34.7435L96.5485 34.0342C98.0383 34.0342 99.3154 35.0981 99.5282 36.5875L101.515 46.4462C101.798 47.9356 100.947 49.2123 99.5991 49.3542Z" fill="white"/>
<path d="M90.5189 50.4183C88.9582 50.3474 87.6102 49.1416 87.3264 47.5813L85.34 37.7226C85.1271 36.8715 85.34 36.0204 85.8366 35.3111C86.2623 34.7438 86.9008 34.3891 87.6102 34.3182L96.5491 33.6089C98.1808 33.6089 99.5997 34.7438 99.9544 36.375L101.941 46.2337C102.154 47.0848 101.941 47.9359 101.444 48.6452C101.019 49.2126 100.38 49.5672 99.6706 49.6381L90.7317 50.3474L90.5189 50.4183ZM96.691 34.3182H96.5491L87.6102 35.0275C87.1136 35.0984 86.6879 35.3111 86.4042 35.7367C86.0494 36.2332 85.9076 36.9424 86.1204 37.5098L88.1067 47.4394C88.3197 48.716 89.4547 49.6381 90.7317 49.6381L99.6706 48.9289C100.167 48.8579 100.593 48.6452 100.877 48.2196C101.231 47.6521 101.373 47.0138 101.231 46.3755L99.245 36.5168C98.9612 35.3821 97.968 34.46 96.691 34.3182Z" fill="white"/>
<path d="M44.5471 77.0152L35.6082 77.7245C34.1183 77.7245 32.8414 76.6606 32.6285 75.1711L30.5711 65.3126C30.2874 63.8231 31.1387 62.4755 32.4866 62.4046L41.4256 61.6953C42.9153 61.6953 44.1923 62.7592 44.4052 64.2487L46.3916 74.1073C46.7463 75.5967 45.895 76.8733 44.5471 77.0152Z" fill="white"/>
<path d="M35.3959 78.1502C33.8351 78.0793 32.4872 76.8736 32.2034 75.3132L30.2169 65.4545C30.0041 64.6034 30.2169 63.7523 30.7135 63.043C31.1392 62.4756 31.7778 62.121 32.4162 62.0501L41.3552 61.3408C43.0577 61.3408 44.4767 62.5466 44.7604 64.1779L46.7468 74.0365C46.9596 74.8876 46.7468 75.7387 46.2502 76.448C45.8246 77.0154 45.1861 77.37 44.5476 77.441L35.6087 78.1502H35.3959ZM41.568 62.0501H41.4261L32.4872 62.7593C31.9906 62.7593 31.5649 63.043 31.2812 63.3976C30.9264 63.8942 30.7845 64.6034 30.9264 65.2418L32.9128 75.1714C33.1256 76.448 34.2607 77.37 35.5378 77.37L44.4767 76.6607C44.9733 76.5898 45.3989 76.3771 45.6827 75.9515C46.0374 75.455 46.1793 74.7458 46.0374 74.1075L44.051 64.2488C43.8381 63.043 42.8449 62.121 41.568 62.0501Z" fill="white"/>
<path d="M64.4107 75.384L55.4718 76.0933C53.9819 76.0933 52.705 75.0294 52.4922 73.5399L50.5057 63.6812C50.2219 62.1917 51.0733 60.8441 52.4212 60.7733L61.3601 60.064C62.8499 60.064 64.127 61.1279 64.3398 62.6173L66.3261 72.476C66.6099 73.9655 65.7586 75.2421 64.4107 75.384Z" fill="white"/>
<path d="M55.3304 76.4475C53.7697 76.3765 52.4217 75.1708 52.138 73.6105L50.1515 63.7518C49.9387 62.9007 50.1515 62.0496 50.6482 61.3404C51.0739 60.7729 51.7123 60.4183 52.3508 60.3474L61.2897 59.6382C62.9215 59.6382 64.4113 60.7729 64.695 62.4043L66.6815 72.2629C66.8943 73.114 66.6815 73.9651 66.1848 74.6743C65.7591 75.2418 65.1207 75.5964 64.4822 75.6674L55.5433 76.3765L55.3304 76.4475ZM61.5025 60.4184H61.3607L52.4217 61.1275C51.9252 61.1985 51.4995 61.4112 51.2157 61.8368C50.861 62.3333 50.7192 63.0426 50.861 63.6809L52.8474 73.5396C53.0602 74.8162 54.1954 75.7382 55.4723 75.7382L64.4112 75.0289C64.9078 75.0289 65.3335 74.7453 65.6172 74.3906C65.972 73.8942 66.114 73.1849 65.972 72.5466L63.9856 62.6879C63.7728 61.4112 62.7085 60.4892 61.5025 60.4184Z" fill="white"/>
<path d="M104.21 72.0503L95.2715 72.8305C93.7817 72.8305 92.5047 71.7666 92.2919 70.2772L90.3055 60.4185C90.0217 58.929 90.873 57.5814 92.2209 57.5106L101.16 56.8013C102.65 56.8013 103.927 57.8652 104.139 59.2838L106.126 69.1423C106.41 70.6318 105.558 71.9794 104.21 72.0503Z" fill="white"/>
<path d="M95.1301 73.1854C93.5694 73.1145 92.2214 71.9087 91.9377 70.3484L89.9513 60.4897C89.7385 59.6386 89.9513 58.7875 90.4479 58.0783C90.8736 57.5109 91.512 57.1563 92.1505 57.0853L101.089 56.376C102.721 56.376 104.14 57.5109 104.495 59.1422L106.481 69.0718C106.694 69.9228 106.481 70.7739 105.985 71.4831C105.559 72.0506 104.92 72.4053 104.282 72.4761L95.3431 73.1854H95.1301ZM101.302 57.0853H101.16L92.2214 57.7946C91.7249 57.7946 91.2992 58.0783 91.0154 58.4329C90.6607 58.9293 90.5189 59.6386 90.6607 60.2769L92.6472 70.1356C92.86 71.4123 93.9951 72.3343 95.272 72.3343L104.211 71.625C104.708 71.5541 105.133 71.3414 105.417 70.9158C105.772 70.4194 105.914 69.7101 105.772 69.0718L103.785 59.3549C103.572 58.0783 102.579 57.1563 101.302 57.0853Z" fill="white"/>
<path d="M49.1588 99.7825L40.2199 100.491C38.73 100.491 37.453 99.4276 37.2402 97.938L35.2537 88.08C34.97 86.5902 35.8213 85.2426 37.1693 85.1717L46.1082 84.4624C47.598 84.4624 48.875 85.5263 49.0878 87.0152L51.0742 96.8743C51.358 98.3639 50.5067 99.6405 49.1588 99.7825Z" fill="white"/>
<path d="M40.0062 100.846C38.4455 100.775 37.0975 99.5694 36.8138 98.0088L34.8273 88.1508C34.6145 87.2989 34.8273 86.4481 35.324 85.7388C35.7496 85.1715 36.3881 84.8168 37.0266 84.7459L45.9655 84.0366C47.6682 84.0366 49.087 85.2424 49.3708 86.8741L51.3573 96.7322C51.5701 97.5829 51.3573 98.4347 50.8607 99.1434C50.4349 99.7113 49.7964 100.066 49.158 100.137L40.219 100.846H40.0062ZM46.1783 84.7459H46.0365L37.0975 85.4551C36.6009 85.5261 36.1753 85.7388 35.8915 86.1644C35.5368 86.6608 35.3949 87.3699 35.5368 88.0088L37.5232 97.8668C37.736 99.1434 38.8712 100.066 40.1481 100.066L49.087 99.3564C49.5836 99.2854 50.0093 99.0725 50.293 98.6477C50.6479 98.1508 50.7897 97.442 50.6479 96.8032L48.6614 87.015C48.4486 85.8098 47.4554 84.8878 46.1783 84.7459Z" fill="white"/>
<path d="M69.023 98.0798L60.0841 98.7897C58.5943 98.7897 57.3173 97.726 57.1045 96.2364L55.118 86.3775C54.8342 84.888 55.6856 83.5404 57.0335 83.4696L65.9724 82.7603C67.4622 82.7603 68.7393 83.8241 68.9521 85.3136L70.9384 95.1728C71.2223 96.6612 70.3709 98.0088 69.023 98.0798Z" fill="white"/>
<path d="M59.9417 99.2143C58.381 99.1433 57.033 97.9377 56.7492 96.3771L54.7628 86.519C54.55 85.6678 54.7628 84.8167 55.2594 84.1075C55.6851 83.54 56.3235 83.1854 56.962 83.1145L65.9009 82.4053C67.5327 82.4053 69.0225 83.54 69.3062 85.1714L71.2927 95.0295C71.5055 95.8813 71.2927 96.732 70.7961 97.4419C70.3704 98.0087 69.7319 98.3636 69.0934 98.4346L60.1545 99.1433L59.9417 99.2143ZM66.1138 83.1145H65.9719L57.033 83.8238C56.5364 83.8946 56.1107 84.1075 55.827 84.533C55.4723 85.0295 55.3304 85.7387 55.4723 86.3771L57.4586 96.2363C57.6715 97.5129 58.8066 98.4346 60.0835 98.4346L69.0225 97.7247C69.5191 97.6537 69.9447 97.4419 70.2285 97.016C70.5833 96.5191 70.7252 95.8103 70.5833 95.1715L68.5968 85.3132C68.384 84.1783 67.3199 83.2563 66.1138 83.1145Z" fill="white"/>
<path d="M88.9575 96.4494L80.0186 97.1581C78.5288 97.1581 77.2518 96.0944 77.039 94.6048L75.0526 84.7461C74.7687 83.2567 75.6201 81.9092 76.968 81.8382L85.9069 81.1289C87.3968 81.1289 88.6738 82.1928 88.8866 83.6823L90.873 93.5412C91.1568 95.0308 90.3055 96.3784 88.9575 96.4494Z" fill="white"/>
<path d="M79.8772 97.5843C78.3165 97.5133 76.9685 96.3077 76.6847 94.7471L74.6984 84.8881C74.4856 84.0371 74.6984 83.1859 75.195 82.4766C75.6206 81.9093 76.2591 81.5546 76.8976 81.4837L85.8365 80.7744C87.4682 80.7744 88.958 81.9093 89.2418 83.5405L91.2282 93.3995C91.4411 94.2502 91.2282 95.101 90.7316 95.8108C90.306 96.3776 89.6674 96.7325 89.029 96.8035L80.09 97.5133L79.8772 97.5843ZM86.0493 81.4837H85.9074L76.9685 82.1929C76.4719 82.2639 76.0463 82.4766 75.7625 82.9022C75.4078 83.3986 75.2659 84.1079 75.4078 84.7462L77.3941 94.6052C77.6071 95.8818 78.7421 96.8035 80.0191 96.8035L88.958 96.0948C89.4546 96.0948 89.8802 95.8108 90.1641 95.4559C90.5188 94.9601 90.6607 94.2502 90.5188 93.6125L88.5324 83.7533C88.3195 82.4766 87.3264 81.5546 86.0493 81.4837Z" fill="white"/>
<path d="M108.893 94.8179L99.9541 95.5266C98.4643 95.5266 97.1873 94.463 96.9745 92.9734L94.9881 83.1147C94.7044 81.6252 95.5556 80.2777 96.9035 80.2067L105.843 79.4976C107.333 79.4976 108.609 80.5613 108.822 82.0508L110.809 91.9097C111.092 93.3993 110.17 94.6759 108.893 94.8179Z" fill="white"/>
<path d="M99.7412 95.8813C98.1804 95.8104 96.8325 94.6047 96.5488 93.0442L94.4914 83.1855C94.2785 82.3343 94.4914 81.4832 94.9879 80.774C95.4136 80.2065 96.0522 79.8519 96.6906 79.781L105.629 79.0718C107.333 79.0718 108.752 80.2775 109.035 81.9087L111.022 91.7675C111.234 92.6182 111.022 93.4701 110.525 94.1788C110.099 94.7467 109.461 95.1005 108.822 95.1715L99.8831 95.8813H99.7412ZM105.913 79.8519H105.771L96.8325 80.5611C96.3359 80.6321 95.9102 80.8448 95.6264 81.2704C95.2717 81.7669 95.1298 82.4762 95.2717 83.1145L97.2582 92.9732C97.471 94.2498 98.6061 95.1715 99.8831 95.1715L108.822 94.4628C109.319 94.3918 109.745 94.1788 110.028 93.7529C110.383 93.2571 110.525 92.5473 110.383 91.9095L108.397 82.0506C108.184 80.8448 107.191 79.9228 105.913 79.8519Z" fill="white"/>
<path d="M53.7701 122.479L44.8312 123.188C43.3413 123.188 42.0644 122.124 41.8515 120.705L39.8651 110.775C39.5813 109.287 40.4327 107.939 41.7806 107.868L50.7195 107.158C52.2093 107.158 53.4863 108.222 53.6992 109.64L55.6855 119.5C55.9693 121.06 55.118 122.408 53.7701 122.479Z" fill="white"/>
<path d="M44.6888 123.613C43.1281 123.542 41.7801 122.337 41.4964 120.776L39.5099 110.917C39.2971 110.066 39.5099 109.215 40.0066 108.506C40.4323 107.939 41.0707 107.584 41.7801 107.513L50.7191 106.804C52.3508 106.804 53.8406 107.939 54.1244 109.569L56.1108 119.428C56.3236 120.279 56.1108 121.131 55.6142 121.84C55.1886 122.408 54.55 122.763 53.8406 122.832L44.9017 123.542L44.6888 123.613ZM50.8609 107.513H50.7191L41.7801 108.222C41.2836 108.293 40.8579 108.506 40.5741 108.932C40.2194 109.498 40.0776 110.137 40.2194 110.776L42.2058 120.634C42.4186 121.911 43.5538 122.832 44.8307 122.832L53.7696 122.124C54.2662 122.053 54.6919 121.84 54.9758 121.415C55.3305 120.847 55.4724 120.208 55.3305 119.57L53.2731 109.782C53.0602 108.506 52.0671 107.584 50.8609 107.513Z" fill="white"/>
<path d="M73.6343 120.847L64.6953 121.557C63.2056 121.557 61.9285 120.492 61.7157 119.075L59.7293 109.216C59.4456 107.726 60.2969 106.378 61.6447 106.307L70.5837 105.599C72.0734 105.599 73.3505 106.662 73.5633 108.081L75.5498 117.939C75.9045 119.428 75.0531 120.705 73.6343 120.847Z" fill="white"/>
<path d="M64.553 121.982C62.9923 121.911 61.6443 120.705 61.3605 119.145L59.3742 109.287C59.1613 108.435 59.3742 107.584 59.8708 106.874C60.2964 106.308 60.9349 105.953 61.6443 105.882L70.5832 105.173C72.215 105.173 73.7047 106.307 73.9885 108.01L75.975 117.868C76.1878 118.72 75.975 119.571 75.4784 120.279C75.0527 120.847 74.4143 121.202 73.7047 121.273L64.7658 121.982H64.553ZM70.7251 105.882H70.5832L61.6443 106.591C61.1477 106.662 60.7221 106.874 60.4383 107.3C60.0836 107.868 59.9417 108.506 60.0836 109.145L62.07 119.003C62.2829 120.279 63.4179 121.202 64.6949 121.202L73.6338 120.492C74.1304 120.421 74.5561 120.208 74.8399 119.784C75.1946 119.216 75.3365 118.578 75.1946 117.939L73.2081 108.081C72.9953 106.874 72.0021 105.953 70.7251 105.882Z" fill="white"/>
<path d="M93.5688 119.216L84.6299 119.926C83.1401 119.926 81.8631 118.861 81.6503 117.443L79.6639 107.584C79.3801 106.095 80.2314 104.747 81.5793 104.676L90.5182 103.967C92.0081 103.967 93.2851 105.031 93.4979 106.45L95.4843 116.379C95.7681 117.797 94.9168 119.074 93.5688 119.216Z" fill="white"/>
<path d="M84.4877 120.28C82.9269 120.209 81.579 119.003 81.2952 117.443L79.3087 107.584C79.0959 106.734 79.3087 105.882 79.8053 105.173C80.231 104.605 80.8695 104.25 81.579 104.25L90.5178 103.542C92.1495 103.542 93.6393 104.676 93.9231 106.379L95.9095 116.237C96.1224 117.089 95.9095 117.939 95.413 118.649C94.9873 119.216 94.3488 119.571 93.6393 119.642L84.7005 120.351L84.4877 120.28ZM90.6597 104.25H90.5178L81.579 104.96C81.0823 105.031 80.6566 105.244 80.3729 105.669C80.0182 106.237 79.8763 106.876 80.0182 107.513L82.0046 117.372C82.2174 118.649 83.3525 119.571 84.6296 119.571L93.5684 118.861C94.065 118.791 94.4907 118.578 94.7745 118.152C95.1292 117.655 95.2711 116.947 95.1292 116.308L93.1427 106.379C92.859 105.244 91.8658 104.321 90.6597 104.25Z" fill="white"/>
<path d="M113.504 117.584L104.565 118.294C103.075 118.294 101.798 117.23 101.586 115.812L99.5282 105.952C99.2444 104.463 100.096 103.115 101.444 103.044L110.383 102.335C111.872 102.335 113.149 103.399 113.362 104.818L115.348 114.677C115.703 116.166 114.852 117.443 113.504 117.584Z" fill="white"/>
<path d="M104.352 118.649C102.791 118.578 101.443 117.372 101.159 115.812L99.173 105.953C98.9602 105.102 99.173 104.25 99.6696 103.541C100.095 102.974 100.734 102.62 101.372 102.549L110.312 101.839C111.943 101.839 113.433 102.974 113.717 104.605L115.703 114.464C115.916 115.315 115.703 116.166 115.206 116.875C114.781 117.443 114.142 117.797 113.433 117.868L104.494 118.578L104.352 118.649ZM110.524 102.549H110.382L101.443 103.257C100.947 103.328 100.521 103.541 100.237 103.967C99.8824 104.463 99.7405 105.173 99.8824 105.811L101.869 115.67C102.082 116.946 103.217 117.868 104.494 117.868L113.433 117.159C113.93 117.159 114.355 116.875 114.639 116.45C114.994 115.883 115.136 115.244 114.994 114.606L113.007 104.676C112.794 103.612 111.801 102.691 110.524 102.549Z" fill="white"/>
<path d="M58.3814 145.246L49.4425 145.955C47.9527 145.955 46.6757 144.891 46.4629 143.473L44.4764 133.613C44.1926 132.124 45.044 130.776 46.3919 130.705L55.3308 129.997C56.8206 129.997 58.0977 131.06 58.3105 132.479L60.297 142.338C60.5807 143.828 59.7293 145.104 58.3814 145.246Z" fill="white"/>
<path d="M49.3001 146.31C47.7394 146.239 46.3914 145.033 46.1076 143.472L44.1212 133.613C43.9084 132.763 44.1212 131.912 44.6178 131.202C45.0435 130.634 45.6819 130.28 46.3204 130.209L55.2593 129.5C56.8911 129.5 58.3809 130.634 58.6646 132.337L60.6511 142.196C60.8639 143.047 60.6511 143.897 60.1545 144.607C59.7289 145.175 59.0903 145.529 58.3809 145.6L49.4419 146.31H49.3001ZM55.4722 130.28H55.3303L46.3914 130.989C45.8948 130.989 45.4691 131.273 45.1854 131.699C44.8307 132.195 44.6888 132.905 44.8307 133.542L46.8171 143.401C47.0299 144.678 48.165 145.6 49.4419 145.6L58.3809 144.891C58.8775 144.82 59.3031 144.607 59.587 144.181C59.9417 143.685 60.0836 142.976 59.9417 142.338L57.9552 132.479C57.6715 131.273 56.6783 130.351 55.4722 130.28Z" fill="white"/>
<path d="M78.3159 143.614L69.377 144.323C67.8872 144.323 66.6101 143.259 66.3973 141.841L64.411 131.912C64.1272 130.422 64.9785 129.075 66.3264 129.004L75.2653 128.295C76.7551 128.295 78.0321 129.359 78.245 130.777L80.2314 140.635C80.5152 142.196 79.6638 143.472 78.3159 143.614Z" fill="white"/>
<path d="M69.1644 144.678C67.6036 144.607 66.2557 143.402 65.972 141.841L63.9855 131.912C63.7727 131.06 63.9855 130.21 64.4821 129.501C64.9077 128.933 65.5462 128.578 66.1848 128.507L75.1236 127.798C76.7554 127.798 78.2451 128.933 78.5289 130.565L80.5154 140.423C80.7282 141.274 80.5154 142.125 80.0188 142.835C79.5931 143.402 78.9546 143.757 78.3161 143.828L69.3773 144.536L69.1644 144.678ZM75.3364 128.578H75.1945L66.2557 129.288C65.759 129.359 65.3334 129.572 65.0496 129.997C64.6949 130.494 64.553 131.202 64.6949 131.841L66.6814 141.77C66.8942 143.047 68.0293 143.97 69.3063 143.97L78.2451 143.26C78.7417 143.189 79.1675 142.976 79.4512 142.551C79.8059 142.054 79.9478 141.345 79.8059 140.707L77.8195 130.848C77.6067 129.642 76.6135 128.72 75.3364 128.578Z" fill="white"/>
<path d="M98.1802 141.912L89.2412 142.621C87.7515 142.621 86.4745 141.557 86.2617 140.139L84.2752 130.28C83.9915 128.791 84.8428 127.443 86.1908 127.372L95.1296 126.664C96.6194 126.664 97.8964 127.727 98.1802 129.146L100.167 139.004C100.379 140.493 99.5281 141.841 98.1802 141.912Z" fill="white"/>
<path d="M89.1 143.047C87.5392 142.976 86.1913 141.77 85.9075 140.211L83.921 130.352C83.7082 129.501 83.921 128.649 84.4176 127.94C84.8433 127.372 85.4819 127.018 86.1203 126.948L95.0593 126.238C96.6909 126.238 98.1808 127.372 98.4646 129.075L100.451 138.934C100.664 139.785 100.451 140.636 99.9543 141.345C99.5287 141.912 98.8902 142.267 98.2517 142.338L89.3128 143.047H89.1ZM95.2721 126.948H95.1302L86.1913 127.656C85.6947 127.727 85.2689 127.94 84.9852 128.365C84.6305 128.862 84.4886 129.572 84.6305 130.21L86.6169 140.069C86.8297 141.345 87.9648 142.267 89.2419 142.267L98.1808 141.558C98.6774 141.487 99.103 141.274 99.3868 140.849C99.7415 140.352 99.8834 139.643 99.7415 139.004L97.7551 129.146C97.5422 127.94 96.549 127.018 95.2721 126.948Z" fill="white"/>
<path d="M118.115 140.281L109.177 140.991C107.687 140.991 106.41 139.927 106.197 138.508L104.211 128.649C103.927 127.16 104.778 125.812 106.126 125.741L115.065 125.032C116.555 125.032 117.832 126.096 118.045 127.514L120.031 137.443C120.315 138.862 119.463 140.21 118.115 140.281Z" fill="white"/>
<path d="M109.035 141.415C107.474 141.344 106.126 140.138 105.843 138.579L103.856 128.72C103.643 127.869 103.856 127.017 104.352 126.308C104.778 125.741 105.416 125.386 106.055 125.316L114.994 124.606C116.626 124.606 118.044 125.741 118.399 127.372L120.385 137.302C120.598 138.153 120.385 139.004 119.889 139.714C119.463 140.28 118.825 140.635 118.115 140.706L109.177 141.415H109.035ZM115.136 125.316H114.994L106.055 126.025C105.558 126.096 105.133 126.308 104.849 126.733C104.494 127.23 104.352 127.94 104.494 128.578L106.481 138.437C106.694 139.714 107.829 140.635 109.106 140.635L118.044 139.927C118.541 139.856 118.967 139.643 119.25 139.217C119.605 138.72 119.747 138.011 119.605 137.372L117.619 127.514C117.406 126.309 116.413 125.386 115.136 125.316Z" fill="white"/>
<path d="M62.9926 168.013L54.0537 168.722C52.564 168.722 51.2869 167.658 51.0741 166.24L49.0877 156.381C48.804 154.891 49.6553 153.543 51.0031 153.474L59.9421 152.764C61.4319 152.764 62.7089 153.827 62.9217 155.246L64.9082 165.105C65.1919 166.595 64.3405 167.871 62.9926 168.013Z" fill="#2E3038"/>
<path d="M82.9272 166.311L73.9884 167.02C72.4985 167.02 71.2216 165.956 71.0088 164.538L69.0223 154.68C68.7385 153.19 69.5898 151.842 70.9378 151.771L79.8766 151.062C81.3665 151.062 82.6435 152.126 82.8563 153.544L84.8427 163.403C85.1265 164.893 84.2752 166.24 82.9272 166.311Z" fill="#2E3038"/>
<path d="M102.792 164.679L93.8527 165.389C92.3628 165.389 91.0858 164.324 90.873 162.906L88.8866 153.048C88.6028 151.558 89.4541 150.21 90.8021 150.139L99.741 149.431C101.231 149.431 102.508 150.494 102.721 151.913L104.707 161.771C104.991 163.261 104.139 164.537 102.792 164.679Z" fill="#2E3038"/>
<path d="M122.727 163.048L113.788 163.758C112.298 163.758 111.021 162.694 110.808 161.275L108.822 151.416C108.538 149.927 109.39 148.579 110.738 148.508L119.676 147.799C121.166 147.799 122.443 148.863 122.656 150.282L124.643 160.141C124.927 161.629 124.074 162.906 122.727 163.048Z" fill="#2E3038"/>
<path d="M72.0736 82.8309C69.4487 82.8309 66.8238 80.5613 66.2562 77.6533L62.1414 57.5813C61.7867 56.092 62.1414 54.4606 62.9928 53.2549C63.7022 52.262 64.8373 51.6236 66.0434 51.5527L84.134 50.0632C86.9008 49.8505 89.7386 52.191 90.3061 55.2408L94.4209 75.3128C94.7756 76.8022 94.4918 78.3626 93.5695 79.6392C92.8601 80.6322 91.725 81.2706 90.448 81.3414L72.3574 82.8309H72.0736ZM84.5597 50.2051H84.2049L66.1144 51.6946C64.9082 51.7654 63.8441 52.4037 63.1347 53.3258C62.2833 54.5315 61.9995 56.092 62.2833 57.5104L66.3981 77.5824C67.0366 80.5613 69.7325 82.8309 72.4283 82.6182L90.5189 81.1287C91.725 81.0577 92.7891 80.4194 93.4985 79.4974C94.35 78.2916 94.6337 76.7313 94.35 75.3128L90.2351 55.2408C89.5967 52.4037 87.1846 50.2051 84.5597 50.2051Z" fill="#2E3038"/>
<path d="M72.9947 80.5614C70.6537 80.5614 68.4544 78.5755 67.9578 76.0221L64.4816 58.8581C64.1978 57.5815 64.4816 56.163 65.2619 55.0991C65.9004 54.2479 66.8936 53.6805 67.9578 53.6096L83.4235 52.333C85.8355 52.1202 88.2477 54.1771 88.8152 56.8722L92.2914 74.0362C92.5753 75.3129 92.2914 76.7314 91.5111 77.7953C90.8726 78.6464 89.8794 79.2138 88.8152 79.2847L73.3496 80.5614C73.2077 80.5614 73.0657 80.5614 72.9947 80.5614ZM83.6364 52.6876C83.5654 52.6876 83.4235 52.6876 83.3526 52.6876L67.8869 53.9642C66.8937 54.0352 66.0423 54.5317 65.4747 55.3118C64.7653 56.3048 64.4816 57.5815 64.7653 58.7872L68.2416 75.9513C68.7381 78.5045 71.0084 80.3486 73.2786 80.1358L88.7442 78.8592C89.7375 78.7882 90.5888 78.2918 91.1564 77.5116C91.8658 76.5186 92.1495 75.242 91.8658 74.0362L88.3895 56.8722C87.8929 54.5317 85.8355 52.6876 83.6364 52.6876Z" fill="#2E3038"/>
<path d="M74.2014 77.4409C72.215 77.299 70.5124 75.8096 70.1577 73.8236L67.4618 60.6315C67.249 59.5676 67.4618 58.5038 68.0293 57.5817C68.5259 56.8724 69.3772 56.4469 70.2286 56.376L82.1471 55.383C84.0626 55.2411 86.0491 56.8016 86.4747 59.0002L89.1706 72.2633C89.3834 73.3272 89.1706 74.3911 88.532 75.3131C88.0354 76.0224 87.2551 76.4479 86.3328 76.5188L74.4143 77.5118L74.2014 77.4409ZM82.431 55.9504H82.2181L70.2996 56.9433C69.59 57.0143 68.9516 57.3689 68.5259 57.9363C67.9584 58.7165 67.8165 59.6385 68.0293 60.5605L70.7252 73.8236C71.0799 75.6677 72.7826 77.0863 74.4852 76.9444L86.4038 75.9514C87.1132 75.8805 87.7517 75.5258 88.1773 74.9585C88.745 74.1783 88.8868 73.2563 88.674 72.3342L85.9781 59.0711C85.6234 57.3689 84.2045 56.0213 82.431 55.9504Z" fill="#2E3038"/>
<path d="M84.3463 73.7525L75.4073 74.4618C73.9176 74.4618 72.6405 73.3979 72.4277 71.9084L70.4412 62.0499C70.1575 60.5604 71.0089 59.2128 72.3568 59.1418L81.2957 58.4326C82.7855 58.4326 84.0625 59.4965 84.2753 60.986L86.2617 70.8446C86.5456 72.334 85.6942 73.6107 84.3463 73.7525Z" fill="#2E3038"/>
<path d="M134.077 75.3131C134.077 75.3131 101.515 67.7241 99.6702 67.3694C97.8256 67.0148 90.3056 64.7452 88.5319 64.8161C86.7584 64.8871 80.4444 65.7382 79.2383 66.3765C78.0323 67.0148 78.458 67.5823 79.0964 67.5113L85.7652 66.5893L89.2415 68.5752C89.2415 68.5752 87.1131 70.703 86.9712 72.1214C86.6875 75.6678 86.7584 76.5188 87.5388 76.377C88.3191 76.2351 88.461 72.2633 88.461 72.2633L89.0286 71.8378L89.5962 74.8166C89.5962 74.8166 90.3765 75.8805 90.8022 74.6748C91.0859 73.8946 90.5184 71.9796 90.5184 71.9796L91.6535 70.9867C91.6535 70.9867 91.9373 73.469 92.5049 73.7528C93.0724 74.0365 93.3562 73.7528 93.2852 73.2563C93.2143 72.7599 92.9305 70.9158 92.9305 70.9158L94.9878 69.6391C94.9878 69.6391 128.118 83.5405 131.524 84.1079C133.865 84.3916 136.277 84.2498 138.548 83.6823L134.077 75.3131Z" fill="white"/>
<path d="M133.723 84.6752C133.014 84.6752 132.234 84.6043 131.524 84.5333C128.119 84.0369 97.8965 71.3412 95.0588 70.1355L93.3562 71.1994C93.4271 71.6958 93.64 72.9016 93.64 73.2561C93.7109 73.6108 93.569 73.8946 93.2853 74.1073C93.0015 74.32 92.5757 74.32 92.292 74.1073C91.7954 73.8236 91.5116 72.6178 91.3697 71.6958L90.8731 72.1214C91.015 72.6888 91.3697 74.1073 91.086 74.8166C90.9441 75.313 90.6603 75.5258 90.3056 75.5968C89.738 75.6676 89.3123 75.1002 89.2414 75.0293C89.2414 74.9585 89.1704 74.9585 89.1704 74.8875L88.7448 72.476C88.6739 74.391 88.3901 76.6607 87.5388 76.7315C87.255 76.8025 87.0422 76.7315 86.8294 76.5188C86.3327 76.0932 86.3327 75.0293 86.6166 72.0504C86.6875 70.8448 88.0354 69.2843 88.6739 68.646L85.6942 66.9438L79.1674 67.795C78.7418 67.8658 78.3871 67.6531 78.1742 67.2984C78.1033 67.0147 78.1033 66.5182 79.0965 65.9508C80.4445 65.2416 86.9003 64.3905 88.532 64.3196C89.809 64.2486 94.0656 65.3835 97.1162 66.1636C98.2513 66.4474 99.2445 66.7311 99.7411 66.8728C101.586 67.2984 133.794 74.7456 134.149 74.8166C134.22 74.8166 134.362 74.8875 134.362 74.9585L138.902 83.3986C138.973 83.4694 138.973 83.6113 138.902 83.6823C138.831 83.7532 138.76 83.8241 138.689 83.895C137.058 84.4625 135.426 84.6752 133.723 84.6752ZM94.9879 69.3553C95.0588 69.3553 95.0588 69.3553 95.1297 69.3553C95.4844 69.4972 128.261 83.2567 131.595 83.7532C133.723 84.0369 135.923 83.895 138.051 83.3986L133.865 75.5258C131.382 74.9585 101.373 68.0077 99.5993 67.5821C99.1027 67.4403 98.1094 67.2275 96.9034 66.8728C94.0656 66.0927 89.738 64.9579 88.532 65.0288C86.7585 65.0998 80.5154 65.9508 79.3802 66.5182C78.8836 66.8019 78.8127 66.9438 78.8127 67.0147C78.8127 67.0857 78.8836 67.0147 78.9546 67.0147H79.0255L85.6942 66.1636C85.7652 66.1636 85.8361 66.1636 85.907 66.2345L89.3833 68.2204C89.4542 68.2914 89.5252 68.3623 89.5252 68.5041C89.5252 68.646 89.5252 68.717 89.4542 68.7879C88.8867 69.3553 87.3969 71.0575 87.255 72.0504C87.1841 73.398 86.9713 75.6676 87.255 75.9514C87.326 75.9514 87.326 75.9514 87.3969 75.9514C87.6807 75.7386 87.9644 73.9654 87.9644 72.1214C87.9644 71.9795 88.0354 71.9087 88.1063 71.8377L88.6739 71.4121C88.7448 71.3412 88.8867 71.3412 89.0286 71.3412C89.1704 71.4121 89.2414 71.4831 89.2414 71.6249L89.809 74.5329C89.9509 74.6747 90.0928 74.7456 90.1637 74.7456C90.2347 74.7456 90.3056 74.6747 90.3766 74.4619C90.4475 73.6108 90.3766 72.7597 90.0928 71.9795C90.0219 71.8377 90.0928 71.6958 90.2347 71.6249L91.3697 70.6319C91.4407 70.561 91.5826 70.561 91.7244 70.561C91.8663 70.6319 91.9373 70.7029 91.9373 70.8448C92.0791 72.0504 92.3629 73.1853 92.6467 73.398C92.7176 73.469 92.7886 73.469 92.9304 73.398C92.9304 73.398 93.0015 73.3271 92.9304 73.2561C92.8595 72.7597 92.5757 70.9865 92.5757 70.9865C92.5757 70.8448 92.6467 70.7029 92.7177 70.6319L94.775 69.3553C94.9169 69.2843 94.9169 69.3553 94.9879 69.3553Z" fill="#2E3038"/>
<path d="M229.356 94.1789C229.356 94.1789 227.157 97.7249 227.724 98.0088C228.292 98.2927 230.633 95.4556 230.633 95.4556L229.498 99.0015C229.498 99.0015 229.427 99.7113 230.704 98.8606C231.981 98.0088 231.697 95.6685 231.697 95.6685L231.839 99.4274C231.839 99.4274 230.988 100.775 232.194 100.633C233.4 100.491 233.613 97.584 233.471 96.7322C233.187 95.6685 232.69 94.7468 232.052 93.895C231.342 93.0443 229.569 93.2572 229.356 94.1789Z" fill="white"/>
<path d="M231.98 100.988C231.696 100.988 231.413 100.917 231.271 100.633C230.987 100.208 231.271 99.5693 231.483 99.2853V98.5766C231.342 98.7896 231.129 99.0014 230.916 99.1434C230.207 99.6403 229.71 99.7822 229.426 99.5693C229.213 99.4273 229.142 99.2144 229.142 99.0014L229.781 97.0161C228.22 98.6476 227.795 98.4346 227.582 98.3637C227.44 98.2927 227.369 98.1507 227.298 98.0087C227.085 97.3 228.433 95.0296 229.071 94.1079C229.284 93.5411 229.781 93.1862 230.348 93.1152C231.058 92.9022 231.838 93.1152 232.335 93.682C233.044 94.5338 233.612 95.5975 233.825 96.7321C233.895 97.513 233.825 98.2927 233.683 99.0724C233.328 100.562 232.689 100.988 232.264 101.059C232.193 100.988 232.051 100.988 231.98 100.988ZM231.909 100.279C231.98 100.279 232.051 100.279 232.122 100.279C232.477 100.208 232.76 99.7113 232.973 98.8606C233.115 98.1507 233.186 97.442 233.115 96.7321C232.831 95.7394 232.406 94.8177 231.767 94.0369C231.413 93.682 230.916 93.6121 230.49 93.753C230.207 93.8239 229.923 94.0369 229.781 94.3208C229.781 94.3918 229.781 94.3918 229.71 94.3918C229.071 95.3845 228.504 96.5191 228.078 97.6538C228.93 96.9451 229.71 96.1653 230.419 95.2425C230.561 95.1006 230.703 95.1006 230.845 95.1715C230.987 95.2425 231.058 95.4555 230.987 95.5975L229.923 98.9315C230.136 98.8606 230.348 98.7186 230.561 98.5766C231.2 98.0087 231.483 97.229 231.413 96.4482V95.6684C231.413 95.4555 231.554 95.3135 231.767 95.3135C231.98 95.3135 232.122 95.4555 232.122 95.5975C232.122 95.8814 232.193 96.1653 232.122 96.3772L232.193 99.3563C232.193 99.4273 232.193 99.4983 232.122 99.5693C232.051 99.7822 231.98 99.9952 231.909 100.279Z" fill="#2E3038"/>
<path d="M204.809 64.6743C204.809 64.6743 208.853 65.4545 210.981 66.5892C213.109 67.7241 229.355 84.8882 229.78 86.8034C230.277 88.7888 231.128 90.7043 232.334 92.3358C233.186 93.4705 235.953 96.8744 236.166 98.293C236.379 99.7116 235.811 100.846 235.102 99.8536C234.392 98.8609 232.903 96.5905 231.696 95.6688C230.49 94.7471 226.801 93.9663 226.801 93.9663C226.801 95.1009 226.73 96.2367 226.517 97.3713C226.162 99.0029 224.956 100.42 224.814 99.5696C224.601 98.0801 224.46 96.5195 224.531 94.9601C224.672 93.3285 224.672 90.4913 224.672 90.4913L225.169 87.3702C225.169 87.3702 214.386 80.5616 210.342 78.4339C206.299 76.3061 202.61 73.8946 202.61 73.8946L200.055 73.6819C200.055 73.6819 200.197 69.2136 201.757 67.3695C202.681 66.4475 203.674 65.4545 204.809 64.6743Z" fill="white"/>
<path d="M235.598 100.562C235.243 100.562 234.96 100.35 234.818 100.066C234.179 99.0738 232.619 96.8034 231.484 95.9527C230.631 95.3138 228.148 94.676 227.155 94.4631C227.155 95.4558 227.084 96.5194 226.871 97.5132C226.658 98.7898 225.807 100.279 225.027 100.279C224.743 100.279 224.459 99.9955 224.459 99.7115C224.246 98.151 224.105 96.5904 224.176 95.031C224.317 93.4704 224.317 90.6332 224.317 90.5622L224.743 87.6541C223.253 86.7324 213.818 80.8454 210.2 78.8595C206.582 76.8735 203.035 74.7458 202.468 74.3911L199.985 74.1783C199.772 74.1783 199.63 74.0365 199.63 73.8237C199.63 73.6109 199.772 69.2135 201.403 67.2986C202.326 66.2347 203.39 65.2417 204.525 64.4615C204.596 64.3906 204.667 64.3906 204.809 64.3906C204.95 64.3906 208.923 65.1708 211.051 66.3056C213.18 67.4404 229.567 84.6044 230.064 86.7324C230.56 88.6467 231.412 90.4912 232.548 92.1228L232.973 92.6896C234.605 94.747 236.308 97.0163 236.449 98.2929C236.591 99.2146 236.449 100.35 235.74 100.562C235.74 100.562 235.669 100.562 235.598 100.562ZM226.8 93.6124H226.871C227.013 93.6834 230.631 94.3921 231.908 95.3848C233.186 96.3786 234.747 98.6479 235.385 99.6405C235.527 99.8535 235.598 99.8535 235.598 99.8535C235.811 99.3566 235.882 98.8608 235.811 98.2929C235.669 97.1583 233.541 94.3921 232.477 93.0445L232.051 92.4777C230.844 90.7752 229.993 88.8597 229.425 86.8034C229.07 85.2428 213.038 68.0787 210.768 66.8021C208.852 65.951 206.866 65.3127 204.88 64.9581C203.815 65.7382 202.893 66.5893 202.042 67.5823C200.836 69.0008 200.552 72.2633 200.481 73.3272L202.68 73.469C202.751 73.469 202.822 73.469 202.822 73.54C202.822 73.54 206.582 75.9515 210.555 78.0083C214.528 80.0652 225.24 86.8743 225.382 86.9453C225.523 87.0163 225.594 87.1583 225.523 87.2991L225.027 90.4203C225.027 90.4912 225.027 93.2574 224.885 94.889C224.814 96.3786 224.885 97.7972 225.098 99.2856C225.594 98.7188 225.949 98.009 226.091 97.2293C226.304 96.0946 226.375 95.031 226.375 93.8952C226.375 93.7543 226.446 93.6834 226.517 93.6124C226.658 93.6834 226.729 93.6124 226.8 93.6124Z" fill="#2E3038"/>
<path d="M179.127 110.563L179.836 119.57C179.836 119.57 176.502 149.36 183.171 157.941C189.839 166.524 211.477 189.007 211.477 189.007L214.883 184.964C214.883 184.964 202.823 161.558 200.552 158.225C198.282 154.891 194.663 146.168 194.663 146.168C194.663 146.168 202.113 115.102 202.681 112.335C203.248 109.57 202.964 102.123 202.823 101.414C202.681 100.704 194.308 104.889 189.414 106.591C184.519 108.294 179.127 110.563 179.127 110.563Z" fill="#2E3038"/>
<path d="M211.406 189.432C211.335 189.432 211.193 189.361 211.122 189.29C210.91 189.078 189.413 166.665 182.745 158.154C176.076 149.643 179.198 120.705 179.34 119.5L178.63 110.563C178.63 110.421 178.701 110.279 178.843 110.208C178.914 110.208 184.164 108.081 189.059 106.308C191.117 105.599 193.884 104.392 196.296 103.328C201.049 101.272 202.326 100.775 202.751 101.059C202.893 101.13 202.964 101.272 202.964 101.343C203.035 102.052 203.319 109.571 202.822 112.407C202.326 115.102 195.374 143.757 194.806 146.097C195.232 147.09 198.566 154.962 200.623 158.012C202.822 161.275 214.457 183.83 214.953 184.752C215.024 184.894 215.024 185.035 214.882 185.106L211.477 189.149C211.619 189.361 211.477 189.432 211.406 189.432ZM179.482 110.776L180.12 119.571C180.12 119.926 176.857 149.36 183.383 157.728C189.555 165.672 208.852 185.886 211.406 188.51L214.386 184.965C213.18 182.623 202.326 161.558 200.198 158.509C197.998 155.246 194.38 146.736 194.238 146.381C194.238 146.31 194.238 146.239 194.238 146.168C194.309 145.884 201.687 115.102 202.255 112.407C202.751 109.924 202.539 103.328 202.397 101.839C200.481 102.478 198.566 103.257 196.65 104.109C194.238 105.173 191.472 106.308 189.342 107.087C185.157 108.506 180.546 110.35 179.482 110.776Z" fill="#2E3038"/>
<path d="M191.898 112.762C191.898 112.762 189.555 115.386 190.194 116.025L190.834 116.662C190.834 116.662 177.708 133.826 176.006 138.295C174.303 142.763 170.898 153.615 170.969 154.182C171.04 154.749 173.239 156.594 174.658 156.523C176.077 156.452 220.345 159.573 220.345 159.573L221.338 155.175L189.201 144.962C189.201 144.962 208.498 116.804 209.42 114.18C210.342 111.556 209.136 102.973 208.994 101.697C208.853 100.42 207.15 98.7188 205.731 98.9306C204.312 99.1436 192.252 107.726 192.252 107.726" fill="#2E3038"/>
<path d="M220.345 159.998C219.919 159.998 176.289 156.948 174.728 156.948C173.239 156.948 170.756 155.104 170.685 154.253C170.614 153.401 174.232 142.267 175.721 138.224C177.353 133.968 188.704 118.932 190.406 116.733L189.981 116.307C189.271 115.528 190.69 113.612 191.684 112.548C191.826 112.407 192.039 112.407 192.181 112.548C192.323 112.69 192.323 112.903 192.181 113.045C191.188 114.18 190.335 115.528 190.477 115.812L191.116 116.449C191.259 116.591 191.259 116.804 191.116 116.946C190.974 117.088 177.992 134.11 176.36 138.508C174.586 143.118 171.394 153.472 171.323 154.253C171.465 154.607 173.451 156.31 174.657 156.31C176.218 156.31 215.875 159.005 220.061 159.289L220.912 155.459L189.058 145.387C188.917 145.316 188.846 145.246 188.846 145.175C188.775 145.104 188.846 144.962 188.917 144.891C195.586 135.174 208.426 116.236 209.065 114.18C209.845 111.84 208.923 104.179 208.639 101.839C208.497 101.201 208.143 100.562 207.575 100.137C207.15 99.6403 206.44 99.3564 205.802 99.3564C204.808 99.4984 197.147 104.747 192.465 108.081C192.323 108.222 192.11 108.151 191.968 108.01C191.826 107.868 191.897 107.655 192.039 107.513C193.316 106.662 204.241 98.8595 205.66 98.6477C206.582 98.5767 207.433 98.9305 208.001 99.5693C208.639 100.137 209.065 100.846 209.278 101.697C209.703 104.676 210.555 111.911 209.703 114.322C208.852 116.733 192.181 141.273 189.697 144.82L221.409 154.891C221.622 154.962 221.692 155.104 221.622 155.317L220.628 159.715C220.628 159.856 220.557 159.998 220.345 159.998Z" fill="#2E3038"/>
<path d="M155.361 69.5682C145.784 72.618 146.281 72.547 146.281 72.547L132.375 74.6039L138.548 86.8034L154.723 88.6468C154.723 88.6468 170.544 103.612 173.523 104.18C176.503 104.747 178.276 108.223 178.276 108.223C178.276 108.223 177.141 110.28 178.702 111.201C180.263 112.124 182.533 112.265 187.357 110.988C192.181 109.712 199.063 105.74 202.255 103.187C205.448 100.633 210.059 97.6542 208.569 96.3775C207.221 95.4558 205.802 94.6761 204.242 94.1792L189.485 78.8594L201.688 79.7815C201.688 79.7815 201.546 72.6889 201.759 70.4192C201.972 68.1496 204.88 64.6743 204.88 64.6743C204.88 64.6743 189.272 63.5394 184.803 62.8302C180.333 62.121 176.006 62.4047 174.233 63.2557C172.459 64.1069 164.158 66.3765 163.732 66.4474C163.306 66.5184 155.361 69.5682 155.361 69.5682Z" fill="white"/>
<path d="M181.823 112.266C180.688 112.337 179.552 112.053 178.559 111.485C177.14 110.705 177.495 109.074 177.921 108.152C177.566 107.513 175.935 104.889 173.523 104.464C170.543 103.896 155.999 90.2074 154.58 88.9307L138.335 87.0874L131.879 74.2494L146.28 72.1926C146.989 71.8379 149.118 71.1996 155.289 69.2137C156.637 68.7172 163.165 66.2349 163.662 66.1639C164.158 66.093 172.387 63.8942 174.09 63.0432C176.076 62.0502 180.475 61.9083 184.873 62.5466C189.271 63.2559 204.738 64.3908 204.88 64.3908L205.589 64.4617L205.163 65.0291C205.163 65.0291 202.326 68.4335 202.113 70.5613C201.9 72.689 202.113 79.7816 202.113 79.8525V80.2781L190.407 79.3561L204.525 94.0372C206.086 94.5341 207.575 95.2428 208.852 96.2367C209.136 96.4496 209.278 96.8034 209.278 97.0874C209.207 98.435 206.795 100.35 204.17 102.336C203.603 102.762 203.035 103.187 202.539 103.612C199.417 106.024 192.535 110.137 187.498 111.485C185.582 111.911 183.667 112.195 181.823 112.266ZM138.76 86.4486L154.864 88.293L154.935 88.364C159.333 92.4778 171.252 103.328 173.593 103.825C176.715 104.393 178.488 107.939 178.559 108.081L178.63 108.223L178.559 108.365C178.559 108.436 177.566 110.137 178.843 110.918C180.12 111.698 181.965 112.124 187.285 110.705C192.18 109.429 198.992 105.386 202.042 102.975C202.539 102.549 203.106 102.123 203.674 101.698C205.802 100.067 208.498 98.08 208.498 97.0164C208.498 96.8744 208.427 96.7324 208.356 96.6614C207.079 95.7397 205.66 95.031 204.17 94.5341H204.099L204.028 94.4631L188.633 78.3631L201.404 79.3561C201.404 77.8666 201.333 72.3345 201.474 70.3485C201.616 68.5045 203.39 66.022 204.241 64.9581C201.191 64.7454 188.704 63.7524 184.802 63.185C180.617 62.5466 176.289 62.6885 174.445 63.6105C172.6 64.5325 164.371 66.7313 163.804 66.8022C163.378 66.8732 158.553 68.7172 155.573 69.852C147.415 72.4763 146.635 72.7599 146.493 72.8309L146.351 72.5472L146.422 72.9018L133.014 74.8168L138.76 86.4486Z" fill="#2E3038"/>
<path d="M165.223 80.7744L171.111 89.0728L172.671 87.6542L168.344 82.3348" fill="white"/>
<path d="M198.85 94.1078C199.346 94.0368 199.914 94.0368 200.41 93.9658L198.85 94.1078Z" fill="white"/>
<path d="M156.141 71.4118C156.992 74.036 157.63 76.6603 158.198 79.3555C158.482 81.767 157.347 83.9656 158.765 83.611C160.185 83.2563 160.114 79.2845 160.114 79.2845L165.222 80.3484L167.492 75.6674C167.492 75.6674 171.678 79.4264 171.607 77.5114C171.536 75.5964 167.209 67.369 166.925 65.4541C166.641 63.539 164.371 63.0426 162.739 64.3902C161.108 65.7378 156.141 71.4118 156.141 71.4118Z" fill="white"/>
<path d="M158.483 83.9657C158.27 83.9657 158.128 83.8948 157.986 83.8239C157.632 83.4692 157.632 82.8309 157.774 81.9089C157.915 81.0577 157.915 80.2067 157.845 79.3555C157.276 76.6604 156.637 74.0361 155.857 71.4828L155.786 71.27L155.928 71.1281C156.141 70.9154 161.037 65.4541 162.598 64.1065C163.449 63.3263 164.726 63.0426 165.861 63.4682C166.712 63.7519 167.28 64.5321 167.351 65.3832C167.493 66.2343 168.486 68.5749 169.479 70.8444C170.756 73.7525 171.962 76.4476 171.962 77.5115C172.033 77.8662 171.891 78.2208 171.536 78.3626C170.685 78.7882 168.699 77.2277 167.563 76.2348L165.364 80.7031L160.398 79.6392C160.398 80.845 160.186 83.6111 158.767 83.8948C158.696 83.9657 158.554 83.9657 158.483 83.9657ZM158.412 83.2565C158.483 83.2565 158.554 83.2565 158.625 83.2565C159.405 83.0436 159.689 80.7741 159.689 79.2137V78.7882L165.01 79.923L167.351 75.1L167.705 75.3837C169.195 76.7313 170.827 77.7952 171.252 77.7243C171.252 77.7243 171.252 77.6533 171.252 77.5824C171.181 76.6604 169.905 73.7525 168.769 71.1991C167.705 68.7876 166.641 66.518 166.57 65.5251C166.499 64.8867 166.074 64.3902 165.506 64.1775C164.655 63.8938 163.662 64.1065 162.952 64.7449C161.533 65.9506 157.277 70.7027 156.496 71.5537C157.277 74.1071 157.986 76.7313 158.483 79.3555C158.554 80.2775 158.554 81.1287 158.412 82.0507C158.341 82.4053 158.341 82.8309 158.412 83.2565Z" fill="#2E3038"/>
<path d="M149.544 69.3554C151.176 70.1356 152.807 70.8449 154.51 71.4123C156.354 71.9797 165.507 82.6895 165.223 80.278C164.939 77.8665 164.3 68.6462 163.732 66.4475C163.023 64.3907 162.242 62.3338 161.32 60.3479C161.32 60.3479 162.81 59.355 160.398 58.362C157.986 57.3691 156.141 59.2131 156.283 60.206C156.425 61.199 156.709 63.185 156.071 63.4687C155.432 63.7524 149.544 69.3554 149.544 69.3554Z" fill="white"/>
<path d="M165.009 80.9874C164.3 80.9874 163.023 79.7816 159.475 76.3063C157.418 74.2495 155.077 71.9798 154.367 71.767C152.665 71.1287 151.033 70.4195 149.401 69.6393L148.976 69.4265L149.33 69.0719C150.749 67.7243 155.289 63.3979 155.928 63.1141C155.999 63.0432 156.212 62.6176 155.928 60.2771C155.928 59.5678 156.283 58.8586 156.921 58.5039C157.985 57.7237 159.333 57.511 160.539 58.0784C161.533 58.5039 162.03 58.9295 162.101 59.5678C162.101 59.9225 161.959 60.2771 161.746 60.4898C162.668 62.4048 163.449 64.3908 164.087 66.4477C164.513 67.937 164.868 72.4763 165.222 76.0935C165.364 77.9376 165.506 79.4979 165.648 80.2781C165.719 80.7037 165.506 80.9164 165.364 80.9874C165.222 80.9874 165.151 80.9874 165.009 80.9874ZM150.182 69.2846C151.6 69.9939 153.09 70.6322 154.58 71.1287C155.431 71.4124 157.205 73.1146 159.971 75.8807C161.675 77.583 163.945 79.8525 164.797 80.2781C164.726 79.427 164.584 77.9376 164.371 76.1644C164.087 72.5473 163.662 68.0789 163.307 66.6604C162.597 64.6035 161.817 62.5467 160.895 60.5608L160.752 60.2771L161.037 60.1352C161.108 60.0643 161.391 59.8515 161.32 59.6388C161.25 59.426 161.179 59.1423 160.184 58.7876C159.262 58.3621 158.127 58.5039 157.276 59.1423C156.85 59.426 156.637 59.7806 156.566 60.2771C156.85 62.334 156.85 63.6106 156.141 63.8943C155.786 64.0362 152.877 66.7313 150.182 69.2846Z" fill="#2E3038"/>
<path d="M144.222 49.7795C142.449 49.425 140.675 48.7866 139.115 47.8645C137.127 46.517 137.908 43.6799 139.966 42.4033C142.023 41.1266 144.577 39.3535 147.273 39.3535C149.969 39.3535 150.891 42.2615 152.806 42.3323C154.722 42.4033 159.9 40.0627 162.809 42.4742C165.718 44.8857 165.363 53.1131 164.299 54.8153C163.235 56.5175 161.177 60.4184 161.177 60.4184C161.177 60.4184 159.475 59.9928 158.198 59.7091C156.921 59.4254 157.772 58.6452 156.353 58.9999C154.935 59.3545 153.516 59.7091 152.31 58.7162C151.104 57.7232 150.749 56.6593 149.969 55.8083C149.188 54.9571 147.84 53.0421 148.053 52.3329C148.195 51.5527 148.337 50.7016 148.337 49.8504L144.222 49.7795Z" fill="#2E3038"/>
<path d="M161.462 60.773L161.178 60.7021C161.178 60.7021 159.547 60.2765 158.199 59.9928C157.773 59.9219 157.347 59.6382 157.135 59.2835L157.064 59.2127C156.851 59.2127 156.709 59.2126 156.496 59.2835C155.006 59.6382 153.517 59.9928 152.169 58.9289C151.459 58.3615 150.892 57.7232 150.466 56.943C150.253 56.5884 150.041 56.3047 149.757 55.9501C149.757 55.9501 147.416 53.2549 147.77 52.12C147.912 51.4817 148.054 50.7725 148.054 50.1341L144.152 50.0632C142.308 49.7086 140.534 49.0702 138.903 48.0773C138.051 47.5099 137.555 46.517 137.626 45.524C137.768 44.1055 138.548 42.7579 139.825 42.0486L140.676 41.5521C142.663 40.3464 144.862 38.9988 147.345 38.9279C148.976 38.8569 150.041 39.8499 150.892 40.7011C151.601 41.3394 152.169 41.9067 152.878 41.9067C153.659 41.8359 154.368 41.765 155.148 41.5521C157.56 41.0557 160.895 40.2755 163.094 42.1196C166.074 44.5311 165.862 52.9712 164.656 54.9571C163.59 56.6593 161.533 60.4893 161.533 60.4893L161.462 60.773ZM156.922 58.5034C157.206 58.5034 157.489 58.6452 157.631 58.9289C157.702 59.0708 157.844 59.2127 158.27 59.3545C159.263 59.5672 160.469 59.851 161.036 59.9928C161.533 59.1417 163.165 56.1628 164.017 54.6734C165.081 52.9712 165.223 44.8857 162.597 42.7579C160.682 41.1975 157.489 41.8359 155.219 42.3323C154.439 42.5452 153.588 42.687 152.807 42.687C151.814 42.687 151.034 41.9777 150.324 41.2684C149.473 40.4883 148.622 39.7081 147.345 39.7081H147.274C145.004 39.7081 142.875 41.0557 140.96 42.1904L140.109 42.687C139.045 43.2543 138.335 44.3892 138.264 45.595C138.193 46.3751 138.619 47.0843 139.257 47.5099C140.747 48.4319 142.45 48.9994 144.152 49.3539L148.693 49.4249V49.7795C148.693 50.6307 148.551 51.4817 148.338 52.3329C148.196 52.6875 149.118 54.2478 150.182 55.4535C150.466 55.8083 150.679 56.1628 150.963 56.5174C151.317 57.2267 151.885 57.7942 152.453 58.2906C153.588 59.1417 154.865 58.8581 156.212 58.5034C156.496 58.5034 156.709 58.5034 156.922 58.5034Z" fill="#2E3038"/>
<path d="M142.946 48.7867C142.946 48.7867 141.527 53.8224 141.811 54.6026C142.095 55.3828 142.307 56.2339 142.449 57.085L140.463 60.4185C140.463 60.4185 140.818 61.6951 141.456 61.7661C142.236 61.9788 143.017 62.3335 143.655 62.759C143.655 62.759 145.571 69.7806 146.209 69.9935C146.848 70.2062 148.408 70.9864 149.047 70.5609C149.685 70.1353 156.85 65.0286 157.702 64.2484C158.553 63.4683 158.198 59.6383 158.198 59.6383C158.198 59.6383 160.397 56.9431 159.546 55.099C158.695 53.255 156.637 53.8933 155.999 55.2409C155.361 56.5885 155.148 57.2978 155.148 57.2978C155.148 57.2978 153.587 57.7943 153.303 56.8722L153.019 55.9502C153.019 55.9502 150.324 53.8933 150.253 53.3968C150.182 52.9004 151.104 47.9355 151.104 47.9355L142.946 48.7867Z" fill="white"/>
<path d="M148.621 70.9868C147.912 70.9158 147.203 70.7031 146.564 70.4194L146.138 70.2775C145.571 70.0648 144.649 67.6533 143.372 62.9722C142.733 62.6176 142.095 62.3338 141.385 62.121C140.534 62.0501 140.108 60.7025 140.108 60.5607V60.4188L142.095 57.0853C141.953 56.3051 141.74 55.5249 141.456 54.8158C141.173 54.0355 142.237 49.9928 142.591 48.787L142.662 48.5743L151.672 47.7231L151.601 48.1487C151.246 50.1346 150.679 53.1135 150.75 53.4682C151.53 54.3192 152.452 55.0994 153.374 55.7378L153.445 55.8087L153.8 56.8726C153.8 56.9434 153.871 57.0144 153.942 57.0853C154.297 57.2271 154.651 57.2271 155.006 57.0853C155.077 56.8017 155.361 56.1633 155.786 55.1704C156.141 54.3192 156.992 53.6809 157.986 53.6809C158.837 53.6809 159.617 54.2483 159.972 55.0285C160.823 56.8017 159.121 59.284 158.695 59.8515C158.766 60.7735 158.979 63.8233 158.057 64.6035C157.134 65.3837 149.969 70.5612 149.402 70.9158C149.047 70.9868 148.834 71.0577 148.621 70.9868ZM140.889 60.4898C141.031 60.9154 141.314 61.4118 141.527 61.4118C142.379 61.6246 143.159 61.9793 143.868 62.4757L144.01 62.5466L144.081 62.6884C144.932 65.8801 146.067 69.3555 146.493 69.7101C146.635 69.7811 146.777 69.7811 146.919 69.8519C147.486 70.0648 148.621 70.4902 148.976 70.2775C149.544 69.8519 156.78 64.7453 157.56 63.9652C158.057 63.5396 158.127 61.199 157.986 59.7096V59.5678L158.057 59.4259C158.057 59.4259 160.114 56.8726 159.333 55.2412C159.121 54.6739 158.624 54.3192 157.986 54.3192C157.276 54.3902 156.709 54.7448 156.425 55.3831C155.786 56.7307 155.574 57.369 155.574 57.369L155.503 57.5109L155.361 57.5819C154.793 57.7946 154.155 57.7946 153.587 57.5819C153.303 57.44 153.162 57.2271 153.02 56.9434L152.736 56.1633C150.962 54.7448 149.969 53.8936 149.898 53.4682C150.111 51.766 150.324 50.0636 150.679 48.3615L143.088 49.0707C142.449 51.3404 141.811 53.9646 142.024 54.3902C142.308 55.2412 142.591 56.0924 142.733 56.9434V57.0853L140.889 60.4898Z" fill="#2E3038"/>
<path d="M90.4471 66.9438C90.4471 66.9438 87.4674 68.646 86.2613 69.2844C85.0553 69.9227 83.2817 69.9936 83.8493 70.7029C84.4169 71.4121 87.6803 70.2064 87.6803 70.2064C87.6803 70.2064 91.3693 70.2064 92.7881 69.9937C93.6395 69.8518 94.349 69.2844 94.7037 68.4333" fill="white"/>
<path d="M84.6303 71.2704C84.2756 71.3413 83.85 71.1994 83.5662 70.9157C83.4243 70.703 83.3534 70.4902 83.4243 70.2774C83.5662 69.8518 84.1337 69.6391 84.8431 69.4263C85.2688 69.2845 85.6944 69.1426 86.1201 68.9298C87.3262 68.2915 90.3058 66.5893 90.3058 66.5893C90.4477 66.5184 90.7315 66.5184 90.8024 66.7311C90.8734 66.873 90.8024 67.0857 90.6605 67.2276C90.5896 67.2276 87.6809 68.9298 86.4749 69.5682C86.0491 69.7809 85.5525 69.9937 85.056 70.1355C84.7722 70.2065 84.4175 70.3484 84.1337 70.4902C84.3465 70.7738 85.9782 70.4902 87.539 69.8518C87.61 69.8518 87.61 69.8518 87.6809 69.8518C87.7518 69.8518 91.37 69.8518 92.7889 69.6391C93.4983 69.4972 94.1368 69.0008 94.3496 68.3624C94.4205 68.1496 94.6334 68.0787 94.7752 68.1496C94.9171 68.2206 95.059 68.4333 94.9881 68.5752C94.6334 69.4972 93.7821 70.2065 92.7889 70.3484C91.4409 70.4902 88.1775 70.5611 87.6809 70.5611C86.7587 70.9867 85.6944 71.1994 84.6303 71.2704Z" fill="#2E3038"/>
<path d="M211.407 189.077L211.052 195.886L206.724 204.894C206.441 205.461 206.937 206.667 208.285 206.1C209.633 205.532 212.542 202.837 214.102 201.561C215.663 200.284 218.146 197.092 219.636 195.957C221.125 194.823 222.757 192.482 222.686 191.985C222.615 191.49 214.812 184.963 214.812 184.963L211.407 189.077Z" fill="#184AFB"/>
<path d="M207.718 206.596C207.009 206.596 206.37 206.029 206.37 205.319C206.37 205.107 206.37 204.965 206.512 204.752C206.796 204.184 210.414 196.596 210.839 195.816L211.194 189.078C211.194 189.007 211.194 188.936 211.265 188.865L214.67 184.822C214.812 184.68 215.025 184.68 215.167 184.751C223.112 191.276 223.183 191.773 223.183 191.985C223.254 192.695 221.41 195.248 219.991 196.312C218.998 197.164 218.146 198.085 217.295 199.007C216.444 200 215.451 200.993 214.457 201.844C214.032 202.199 213.464 202.695 212.826 203.192C211.265 204.539 209.562 206.029 208.498 206.454C208.215 206.525 207.931 206.596 207.718 206.596ZM211.762 189.219L211.407 195.957C211.407 196.028 211.407 196.028 211.407 196.099L207.08 205.107C207.009 205.319 207.08 205.603 207.221 205.745C207.434 205.958 207.789 206.029 208.215 205.816C209.137 205.461 210.91 203.901 212.329 202.695C212.968 202.199 213.464 201.702 213.961 201.347C214.954 200.497 215.876 199.575 216.657 198.581C217.508 197.588 218.43 196.596 219.494 195.745C220.7 194.751 221.693 193.546 222.403 192.127C221.906 191.489 217.721 187.871 214.883 185.531L211.762 189.219Z" fill="#2E3038"/>
<path d="M219.707 196.028C221.196 194.964 222.828 192.553 222.757 192.056C222.473 191.702 222.19 191.347 221.835 191.063C220.771 192.198 218.643 194.609 216.727 196.596C214.599 198.936 209.065 204.114 207.079 206.029C207.434 206.313 207.93 206.313 208.356 206.1C209.704 205.532 212.612 202.837 214.173 201.56C215.734 200.284 218.217 197.163 219.707 196.028Z" fill="#2E3038"/>
<path d="M207.718 206.596C207.363 206.596 207.079 206.525 206.866 206.313C206.796 206.242 206.725 206.171 206.725 206.029C206.725 205.958 206.796 205.816 206.866 205.745C209.066 203.689 214.386 198.581 216.514 196.312C218.43 194.256 220.487 191.985 221.622 190.78C221.693 190.709 221.764 190.638 221.906 190.638C221.977 190.638 222.119 190.638 222.19 190.709C223.112 191.56 223.183 191.772 223.254 191.914C223.325 192.624 221.48 195.177 220.062 196.241C219.068 197.092 218.217 198.015 217.366 198.936C216.514 199.929 215.521 200.923 214.528 201.773C214.102 202.128 213.535 202.624 212.896 203.121C211.336 204.469 209.633 205.958 208.569 206.383C208.214 206.525 207.931 206.596 207.718 206.596ZM207.718 205.887C207.86 205.887 208.072 205.887 208.214 205.745C209.137 205.39 210.91 203.83 212.329 202.624C212.967 202.128 213.464 201.631 213.961 201.277C214.954 200.426 215.876 199.504 216.656 198.51C217.508 197.518 218.43 196.525 219.494 195.674C220.7 194.68 221.693 193.475 222.403 192.056C222.261 191.843 222.048 191.631 221.835 191.49C220.7 192.766 218.714 194.893 217.011 196.809C215.025 199.007 210.13 203.618 207.718 205.887Z" fill="#2E3038"/>
<path d="M220.345 159.644L224.106 163.829L230.065 175.956C230.065 175.956 231.555 176.311 232.193 175.886C232.832 175.46 231.767 160.352 231.413 158.083C231.058 155.814 231.484 154.82 230.561 154.466C229.639 154.111 221.339 155.317 221.339 155.317L220.345 159.644Z" fill="#184AFB"/>
<path d="M231.129 176.311C230.703 176.311 230.349 176.24 229.994 176.169C229.923 176.169 229.781 176.098 229.781 175.956L223.892 163.9L220.203 159.786C220.132 159.715 220.061 159.573 220.132 159.431L221.125 155.033C221.125 154.891 221.267 154.749 221.409 154.749C222.828 154.537 229.781 153.473 230.774 153.898C231.626 154.253 231.626 154.962 231.696 156.026C231.696 156.523 231.767 157.091 231.838 157.799C231.838 157.941 233.47 175.247 232.477 175.956C232.051 176.24 231.626 176.382 231.129 176.311ZM230.278 175.531C230.845 175.673 231.413 175.673 231.909 175.46C232.335 174.184 231.413 160.707 231.058 158.012C230.987 157.373 230.916 156.807 230.916 156.168C230.845 155.104 230.845 154.82 230.42 154.679C229.923 154.466 225.594 154.962 221.622 155.53L220.699 159.573L224.317 163.545L224.388 163.616L230.278 175.531Z" fill="#2E3038"/>
<path d="M230.561 154.324C230.206 154.254 229.78 154.183 229.426 154.254C229.922 158.438 231.059 169.006 231.413 171.205C231.555 172.765 231.626 174.397 231.484 175.956C231.768 175.956 231.981 175.885 232.194 175.744C232.832 175.318 231.768 160.211 231.413 157.941C231.059 155.672 231.555 154.749 230.561 154.324Z" fill="#2E3038"/>
<path d="M231.484 176.311C231.413 176.311 231.271 176.24 231.2 176.24C231.129 176.169 231.058 176.098 231.129 175.956C231.2 174.397 231.2 172.836 231.058 171.275C230.774 169.006 229.568 158.651 229.142 154.324C229.142 154.253 229.142 154.111 229.214 154.041C229.285 153.97 229.356 153.899 229.497 153.899C229.923 153.828 230.349 153.899 230.774 153.97C231.626 154.324 231.626 155.033 231.697 156.097C231.697 156.594 231.768 157.162 231.838 157.87C231.838 158.012 233.47 175.318 232.477 176.027C232.122 176.169 231.838 176.311 231.484 176.311ZM229.852 154.608C230.349 159.147 231.484 169.006 231.768 171.204C231.909 172.623 231.98 174.113 231.909 175.531H231.98C232.406 174.255 231.484 160.779 231.129 158.083C231.058 157.444 230.987 156.878 230.987 156.239C230.916 155.175 230.916 154.891 230.491 154.749C230.278 154.608 230.065 154.608 229.852 154.608Z" fill="#2E3038"/>
</g>
</svg>
